<svg width="200" height="178" viewBox="0 0 200 178" fill="none" xmlns="http://www.w3.org/2000/svg">
<g clip-path="url(#clip0_810_9647)">
<path fill-rule="evenodd" clip-rule="evenodd" d="M98.7498 151.254C87.6416 150.922 76.8813 147.304 67.8296 140.857C58.7779 134.41 51.8413 125.423 47.897 115.033C43.9526 104.644 43.1776 93.318 45.6702 82.488C48.1627 71.658 53.8108 61.8104 61.9001 54.1904C69.9893 46.5704 80.1565 41.5203 91.1159 39.6786C102.075 37.837 113.335 39.2865 123.47 43.844C133.606 48.4014 142.163 55.8621 148.058 65.2825C153.953 74.703 156.923 85.6601 156.591 96.7682C156.146 111.664 149.802 125.772 138.955 135.991C128.108 146.209 113.645 151.699 98.7498 151.254ZM68.2492 106.806C67.0779 105.548 66.4498 103.88 66.5011 102.162C66.5524 100.445 67.279 98.8171 68.5232 97.6321L71.9277 94.4434C72.5069 93.8929 73.1907 93.4643 73.9388 93.1831C74.6868 92.902 75.4838 92.774 76.2822 92.8068C77.0806 92.8395 77.8643 93.0323 78.5868 93.3738C79.3093 93.7153 79.9558 94.1985 80.4879 94.7947L86.1479 101.029C86.4176 101.331 86.7461 101.575 87.1132 101.747C87.4804 101.918 87.8785 102.012 88.2834 102.024C88.6883 102.036 89.0913 101.966 89.468 101.817C89.8447 101.668 90.1871 101.444 90.4743 101.158L121.158 71.3635C121.729 70.7962 122.408 70.3502 123.156 70.0523C123.904 69.7545 124.704 69.6109 125.508 69.6302C126.313 69.6495 127.105 69.8313 127.838 70.1647C128.571 70.4981 129.228 70.9762 129.771 71.5702L132.885 74.9124C134.027 76.1636 134.637 77.8102 134.586 79.5034C134.536 81.1967 133.828 82.8038 132.614 83.9847L91.8955 122.963C91.3269 123.518 90.6534 123.953 89.9144 124.244C89.1755 124.534 88.3858 124.674 87.5919 124.656C86.798 124.637 86.0158 124.461 85.2912 124.136C84.5665 123.811 83.914 123.345 83.3719 122.765L68.2492 106.806Z" fill="#3655B3"/>
<path d="M146.298 54.8316C148.98 54.9117 151.22 52.802 151.3 50.1193C151.38 47.4366 149.271 45.1969 146.588 45.1168C143.905 45.0366 141.666 47.1464 141.585 49.8291C141.505 52.5118 143.615 54.7515 146.298 54.8316Z" fill="#3655B3"/>
</g>
<path d="M75.8981 173.664C77.9101 173.725 79.5898 172.142 79.6499 170.13C79.71 168.118 78.1277 166.438 76.1157 166.378C74.1037 166.318 72.4239 167.901 72.3638 169.913C72.3037 171.925 73.8861 173.604 75.8981 173.664Z" fill="#3655B3"/>
<path d="M109.992 171.645C112.34 171.715 114.299 169.869 114.37 167.522C114.44 165.174 112.594 163.215 110.246 163.145C107.899 163.074 105.939 164.92 105.869 167.268C105.799 169.615 107.645 171.575 109.992 171.645Z" fill="#3655B3"/>
<path d="M148.124 156.375C149.801 156.425 151.201 155.107 151.251 153.43C151.301 151.753 149.982 150.354 148.305 150.304C146.629 150.253 145.229 151.572 145.179 153.249C145.129 154.925 146.447 156.325 148.124 156.375Z" fill="#3655B3"/>
<path d="M53.9031 157.208C56.5858 157.288 58.8255 155.178 58.9056 152.495C58.9858 149.813 56.876 147.573 54.1933 147.493C51.5107 147.413 49.271 149.522 49.1908 152.205C49.1107 154.888 51.2205 157.127 53.9031 157.208Z" fill="#3655B3"/>
<path d="M15.7036 123.857C18.2186 123.932 20.3184 121.954 20.3935 119.439C20.4686 116.924 18.4907 114.824 15.9757 114.749C13.4607 114.674 11.361 116.652 11.2858 119.167C11.2107 121.682 13.1886 123.782 15.7036 123.857Z" fill="#3655B3"/>
<path d="M163.921 136.185C165.934 136.245 167.613 134.663 167.673 132.651C167.733 130.639 166.151 128.959 164.139 128.899C162.127 128.839 160.447 130.421 160.387 132.433C160.327 134.445 161.909 136.125 163.921 136.185Z" fill="#3655B3"/>
<path d="M191.462 129.715C194.144 129.796 196.384 127.686 196.464 125.003C196.544 122.32 194.435 120.081 191.752 120.001C189.069 119.92 186.83 122.03 186.749 124.713C186.669 127.396 188.779 129.635 191.462 129.715Z" fill="#3655B3"/>
<path d="M167.312 104.077C168.988 104.127 170.388 102.808 170.438 101.131C170.488 99.4546 169.17 98.0548 167.493 98.0047C165.816 97.9547 164.416 99.2733 164.366 100.95C164.316 102.627 165.635 104.026 167.312 104.077Z" fill="#3655B3"/>
<path d="M164.677 90.6285C167.359 90.7086 169.599 88.5988 169.679 85.9162C169.759 83.2335 167.649 80.9938 164.967 80.9137C162.284 80.8335 160.044 82.9433 159.964 85.626C159.884 88.3086 161.994 90.5483 164.677 90.6285Z" fill="#3655B3"/>
<path d="M181.722 69.2601C183.398 69.3102 184.798 67.9916 184.848 66.3149C184.898 64.6382 183.58 63.2384 181.903 63.1883C180.226 63.1383 178.827 64.4569 178.777 66.1335C178.726 67.8102 180.045 69.21 181.722 69.2601Z" fill="#3655B3"/>
<path d="M175.442 55.7027C178.125 55.7828 180.365 53.673 180.445 50.9904C180.525 48.3077 178.415 46.068 175.732 45.9879C173.05 45.9077 170.81 48.0175 170.73 50.7002C170.65 53.3829 172.76 55.6225 175.442 55.7027Z" fill="#3655B3"/>
<path d="M11.5465 151.08C13.5585 151.14 15.2383 149.557 15.2984 147.545C15.3585 145.533 13.7762 143.853 11.7641 143.793C9.75214 143.733 8.07237 145.316 8.01227 147.328C7.95217 149.34 9.5345 151.019 11.5465 151.08Z" fill="#3655B3"/>
<path d="M152.84 39.2261C155.187 39.2962 157.147 37.4501 157.217 35.1028C157.287 32.7554 155.441 30.7957 153.094 30.7256C150.747 30.6555 148.787 32.5015 148.717 34.8489C148.647 37.1962 150.493 39.1559 152.84 39.2261Z" fill="#3655B3"/>
<path d="M158.329 28.4517C160.844 28.5268 162.943 26.5489 163.018 24.0339C163.094 21.5189 161.116 19.4192 158.601 19.344C156.086 19.2689 153.986 21.2468 153.911 23.7618C153.836 26.2768 155.814 28.3765 158.329 28.4517Z" fill="#3655B3"/>
<path d="M114.815 10.1361C116.492 10.1862 117.892 8.86755 117.942 7.19089C117.992 5.51422 116.673 4.1144 114.997 4.06432C113.32 4.01423 111.92 5.33284 111.87 7.00951C111.82 8.68618 113.139 10.086 114.815 10.1361Z" fill="#3655B3"/>
<path d="M57.1787 27.2533C58.8554 27.3033 60.2552 25.9847 60.3053 24.3081C60.3554 22.6314 59.0368 21.2316 57.3601 21.1815C55.6834 21.1314 54.2836 22.45 54.2335 24.1267C54.1834 25.8034 55.5021 27.2032 57.1787 27.2533Z" fill="#3655B3"/>
<path d="M76.3361 36.9409C78.6835 37.011 80.6432 35.165 80.7133 32.8176C80.7835 30.4703 78.9374 28.5106 76.5901 28.4404C74.2427 28.3703 72.283 30.2164 72.2129 32.5637C72.1428 34.911 73.9888 36.8708 76.3361 36.9409Z" fill="#3655B3"/>
<path d="M39.941 34.6391C41.953 34.6992 43.6328 33.1168 43.6929 31.1048C43.753 29.0928 42.1707 27.4131 40.1587 27.353C38.1467 27.2929 36.4669 28.8752 36.4068 30.8872C36.3467 32.8992 37.929 34.579 39.941 34.6391Z" fill="#3655B3"/>
<path d="M26.6649 11.149C29.3475 11.2291 31.5872 9.11934 31.6674 6.43667C31.7475 3.754 29.6377 1.5143 26.9551 1.43416C24.2724 1.35403 22.0327 3.4638 21.9526 6.14647C21.8724 8.82914 23.9822 11.0688 26.6649 11.149Z" fill="#3655B3"/>
<path d="M7.82082 62.2417C10.3358 62.3168 12.4355 60.3389 12.5107 57.8239C12.5858 55.3089 10.6079 53.2092 8.09288 53.1341C5.57788 53.0589 3.47816 55.0369 3.40303 57.5519C3.3279 60.0669 5.30581 62.1666 7.82082 62.2417Z" fill="#3655B3"/>
<path d="M28.3154 78.0472C29.9921 78.0973 31.3919 76.7787 31.442 75.102C31.4921 73.4253 30.1735 72.0255 28.4968 71.9755C26.8201 71.9254 25.4203 73.244 25.3703 74.9206C25.3202 76.5973 26.6388 77.9971 28.3154 78.0472Z" fill="#3655B3"/>
<path d="M33.4774 108.587C36.16 108.668 38.3997 106.558 38.4799 103.875C38.56 101.192 36.4502 98.9528 33.7676 98.8726C31.0849 98.7925 28.8452 100.902 28.7651 103.585C28.6849 106.268 30.7947 108.507 33.4774 108.587Z" fill="#3655B3"/>
<path d="M104.683 23.8109C106.359 23.861 107.759 22.5424 107.809 20.8657C107.859 19.189 106.541 17.7892 104.864 17.7391C103.187 17.689 101.788 19.0076 101.737 20.6843C101.687 22.361 103.006 23.7608 104.683 23.8109Z" fill="#3655B3"/>
<path d="M114.625 36.8695C116.637 36.9296 118.316 35.3473 118.377 33.3353C118.437 31.3233 116.854 29.6435 114.842 29.5834C112.83 29.5233 111.15 31.1057 111.09 33.1177C111.03 35.1297 112.613 36.8094 114.625 36.8695Z" fill="#3655B3"/>
<defs>
<clipPath id="clip0_810_9647">
<rect width="112.378" height="112.378" fill="white" transform="translate(45.9414 37.249) rotate(1.71102)"/>
</clipPath>
</defs>
</svg>
