<svg width="155" height="120" viewBox="0 0 155 120" fill="none" xmlns="http://www.w3.org/2000/svg">
<mask id="mask0_906_3189" style="mask-type:luminance" maskUnits="userSpaceOnUse" x="48" y="0" width="57" height="92">
<path d="M48.9336 0H104.997V91.9075H48.9336V0Z" fill="white"/>
</mask>
<g mask="url(#mask0_906_3189)">
<path fill-rule="evenodd" clip-rule="evenodd" d="M48.9336 23.5416L89.6338 0.0429688V5.15772L53.0455 26.2821V79.4018L48.9336 81.7784V23.5416ZM64.0648 33.6299L104.765 10.1313V25.4348L77.3196 41.2793V47.4447L104.765 31.5979V46.9014L77.3196 62.7459V68.9114L104.765 53.0645V68.3657L64.0648 91.8643V33.6299Z" fill="white"/>
</g>
<path d="M0 118.972V101.184H12.5128V104.582H4.11669V108.354H11.5172V111.38H4.11669V115.544H12.7617V118.972H0Z" fill="white"/>
<path d="M16.7168 118.972V101.184H25.7831C27.7672 101.184 29.2966 101.605 30.3689 102.447C31.4411 103.285 31.9773 104.477 31.9773 106.028C31.9773 107.012 31.7188 107.833 31.2018 108.488C30.6848 109.147 29.9429 109.599 28.9807 109.848V109.877C30.0649 110.094 30.9002 110.556 31.489 111.265C32.0826 111.973 32.3794 112.892 32.3794 114.022C32.3794 115.592 31.8241 116.813 30.7135 117.679C29.6078 118.541 28.0377 118.972 26.0033 118.972H16.7168ZM20.9867 108.555H25.1129C25.9411 108.555 26.5873 108.369 27.0468 107.99C27.5064 107.615 27.7361 107.086 27.7361 106.401C27.7361 105.75 27.5064 105.243 27.0468 104.879C26.5873 104.515 25.9411 104.333 25.1129 104.333H20.9867V108.555ZM20.9867 115.803H25.2374C26.1684 115.803 26.8841 115.611 27.3819 115.228C27.8797 114.84 28.1286 114.297 28.1286 113.601C28.1286 112.849 27.8797 112.275 27.3819 111.877C26.8841 111.475 26.1684 111.274 25.2374 111.274H20.9867V115.803Z" fill="white"/>
<path d="M45.6267 119.594C43.6402 119.594 41.9121 119.197 40.4378 118.407C38.9634 117.617 37.817 116.509 37.0008 115.085C36.1823 113.663 35.7754 111.992 35.7754 110.078C35.7754 108.163 36.1823 106.495 37.0008 105.071C37.817 103.642 38.9634 102.531 40.4378 101.739C41.9121 100.949 43.6402 100.552 45.6267 100.552C47.6228 100.552 49.3605 100.949 50.8348 101.739C52.3092 102.531 53.4532 103.642 54.2718 105.071C55.0879 106.495 55.4972 108.163 55.4972 110.078C55.4972 111.992 55.0879 113.663 54.2718 115.085C53.4532 116.509 52.3092 117.617 50.8348 118.407C49.3605 119.197 47.6228 119.594 45.6267 119.594ZM45.6267 115.927C46.7564 115.927 47.7425 115.685 48.585 115.2C49.4275 114.716 50.0737 114.032 50.5285 113.151C50.988 112.27 51.2178 111.246 51.2178 110.078C51.2178 108.898 50.988 107.866 50.5285 106.985C50.0737 106.1 49.4275 105.413 48.585 104.927C47.7425 104.443 46.7564 104.199 45.6267 104.199C44.509 104.199 43.5301 104.443 42.6876 104.927C41.8451 105.413 41.1941 106.1 40.7346 106.985C40.2798 107.866 40.0548 108.898 40.0548 110.078C40.0548 111.246 40.2798 112.27 40.7346 113.151C41.1941 114.032 41.8451 114.716 42.6876 115.2C43.5301 115.685 44.509 115.927 45.6267 115.927Z" fill="white"/>
<path d="M68.867 119.594C66.8804 119.594 65.1524 119.197 63.678 118.407C62.2037 117.617 61.0572 116.509 60.2411 115.085C59.4225 113.663 59.0156 111.992 59.0156 110.078C59.0156 108.163 59.4225 106.495 60.2411 105.071C61.0572 103.642 62.2037 102.531 63.678 101.739C65.1524 100.949 66.8804 100.552 68.867 100.552C70.8631 100.552 72.6007 100.949 74.0751 101.739C75.5494 102.531 76.6935 103.642 77.512 105.071C78.3282 106.495 78.7374 108.163 78.7374 110.078C78.7374 111.992 78.3282 113.663 77.512 115.085C76.6935 116.509 75.5494 117.617 74.0751 118.407C72.6007 119.197 70.8631 119.594 68.867 119.594ZM68.867 115.927C69.9967 115.927 70.9827 115.685 71.8252 115.2C72.6677 114.716 73.3139 114.032 73.7687 113.151C74.2282 112.27 74.458 111.246 74.458 110.078C74.458 108.898 74.2282 107.866 73.7687 106.985C73.3139 106.1 72.6677 105.413 71.8252 104.927C70.9827 104.443 69.9967 104.199 68.867 104.199C67.7492 104.199 66.7703 104.443 65.9278 104.927C65.0854 105.413 64.4343 106.1 63.9748 106.985C63.5201 107.866 63.2951 108.898 63.2951 110.078C63.2951 111.246 63.5201 112.27 63.9748 113.151C64.4343 114.032 65.0854 114.716 65.9278 115.2C66.7703 115.685 67.7492 115.927 68.867 115.927Z" fill="white"/>
<path d="M82.8848 118.972V101.184H87.1546V107.952L87.2025 107.981L92.8797 101.184H98.0687L91.9223 108.029L98.2984 118.972H93.1478L89.0311 111.198L87.1546 113.199V118.972H82.8848Z" fill="white"/>
<path d="M109.373 118.972V101.184H113.643V118.972H109.373Z" fill="white"/>
<path d="M118.418 118.972V101.184H123.415L130.653 113.85H130.711V101.184H134.751V118.972H129.734L122.487 106.325H122.439V118.972H118.418Z" fill="white"/>
<path d="M139.533 118.972V101.184H143.803V107.952L143.851 107.981L149.528 101.184H154.717L148.571 108.029L154.947 118.972H149.796L145.68 111.198L143.803 113.199V118.972H139.533Z" fill="white"/>
</svg>
